<svg version="1.1" id="Layer_1" xmlns="http://www.w3.org/2000/svg" xmlns:xlink="http://www.w3.org/1999/xlink" x="0px" y="0px"
	 width="100%" viewBox="0 0 1043 933" enable-background="new 0 0 1043 933" xml:space="preserve">
<path fill="#000000" opacity="1.000000" stroke="none" 
	d="
M536.000000,934.000000 
	C358.855682,934.000000 182.211334,933.987671 5.567051,934.086243 
	C1.941940,934.088257 0.895056,933.471619 0.896485,929.568054 
	C1.009213,621.607056 1.011343,313.645996 0.881176,5.685005 
	C0.879405,1.493719 1.894689,0.897262 5.813877,0.898509 
	C350.270294,1.008119 694.726746,1.008073 1039.183228,0.898931 
	C1043.096313,0.897691 1044.121094,1.484469 1044.119263,5.682037 
	C1043.988770,313.643066 1043.990723,621.604126 1044.103027,929.565125 
	C1044.104492,933.462402 1043.066772,934.088928 1039.435913,934.086792 
	C871.790588,933.987000 704.145325,934.000000 536.000000,934.000000 
z"/>
<path fill="#F9F9F9" opacity="1.000000" stroke="none" 
	d="
M311.900208,603.301819 
	C311.825623,550.855225 311.723389,498.873749 311.700806,446.892242 
	C311.689301,420.402344 311.274139,393.897156 312.011047,367.425903 
	C313.227966,323.709930 349.311127,287.491241 393.143219,287.070343 
	C467.445465,286.356873 541.758301,286.745026 616.066650,286.685883 
	C620.063416,286.682709 624.062683,286.759918 628.056702,286.909027 
	C669.486084,288.455322 704.426575,321.591980 708.059387,362.856689 
	C708.540588,368.322632 708.773743,373.828247 708.777527,379.315735 
	C708.827148,451.293152 708.809143,523.270630 708.820801,595.248047 
	C708.825806,625.992493 697.071594,650.909302 671.818176,668.847229 
	C657.254211,679.192139 640.626221,683.728516 622.898438,683.754028 
	C547.922058,683.862061 472.944702,683.995850 397.969299,683.703430 
	C365.074463,683.575073 339.712402,669.110474 322.756989,640.762878 
	C315.998138,629.462891 312.354004,617.028442 311.900208,603.301819 
z"/>
<path fill="#020202" opacity="1.000000" stroke="none" 
	d="
M329.837860,410.999939 
	C329.895203,396.501495 329.667999,382.494934 330.066162,368.506195 
	C331.043060,334.186646 359.417084,305.360992 393.619843,305.134521 
	C465.615692,304.657715 537.616333,304.885468 609.614990,304.850983 
	C617.274048,304.847321 624.982300,304.295929 632.577576,305.483093 
	C667.611694,310.958984 690.341797,337.150970 690.488281,373.388062 
	C690.789551,447.886688 690.459717,522.387695 690.658569,596.886963 
	C690.746338,629.780334 670.324768,653.104736 645.805725,661.941772 
	C637.863708,664.804321 629.572571,665.581970 621.217407,665.584900 
	C547.050903,665.611023 472.884399,665.553223 398.717926,665.600647 
	C379.871918,665.612732 363.396667,659.851074 349.868225,646.447571 
	C337.505798,634.199158 330.162354,619.495239 330.088501,601.996216 
	C329.820435,538.498230 329.893494,474.998810 329.837860,410.999939 
z"/>
<path fill="#F8F8F8" opacity="1.000000" stroke="none" 
	d="
M551.112793,393.921021 
	C595.352234,414.572418 618.172791,463.775726 605.601257,510.807892 
	C591.499512,563.564697 534.816895,595.664062 482.373962,580.591370 
	C437.836365,567.790710 408.293457,527.122681 409.763519,480.637604 
	C411.211914,434.837891 445.272156,394.767761 490.271362,386.449738 
	C511.087860,382.601837 531.381592,384.879486 551.112793,393.921021 
z"/>
<path fill="#FBFBFB" opacity="1.000000" stroke="none" 
	d="
M637.534241,348.313049 
	C646.874451,356.385834 650.320374,366.246338 646.038025,377.465973 
	C641.577209,389.153107 631.647217,395.559174 616.904175,393.023132 
	C606.720764,391.271454 597.862366,380.160156 597.847717,369.990692 
	C597.833191,359.900726 601.470520,352.121552 610.076538,347.165070 
	C619.128357,341.951874 628.356934,342.616211 637.534241,348.313049 
z"/>
<path fill="#010101" opacity="1.000000" stroke="none" 
	d="
M427.999268,472.242981 
	C435.488068,427.663727 473.312958,400.478577 513.162842,402.280762 
	C562.871582,404.528778 599.101074,450.449097 590.144287,499.379700 
	C583.561096,535.343994 554.595398,561.900757 517.078064,566.369202 
	C483.467499,570.372437 448.323608,550.017578 434.283203,518.035217 
	C427.946014,503.599762 425.343811,488.454468 427.999268,472.242981 
z"/>
</svg>