<svg version="1.1" id="Layer_1" xmlns="http://www.w3.org/2000/svg" xmlns:xlink="http://www.w3.org/1999/xlink" x="0px" y="0px"
	 width="100%" viewBox="0 0 1024 1024" enable-background="new 0 0 1024 1024" xml:space="preserve">
<path fill="#000000" opacity="1.000000" stroke="none" 
	d="
M867.409424,602.000122 
	C867.405701,619.832336 867.656494,637.169189 867.348083,654.495972 
	C866.465210,704.085022 850.011169,748.195251 818.909973,786.581970 
	C786.750732,826.274414 745.403198,851.675537 695.434265,862.710754 
	C682.258179,865.620544 668.925110,867.443176 655.350403,867.433594 
	C560.689392,867.366760 466.026123,867.786438 371.368256,867.242188 
	C320.885864,866.951843 276.184143,849.365662 237.408432,817.225159 
	C200.022400,786.236450 175.821289,746.802551 164.293777,699.640259 
	C160.006500,682.099792 158.396622,664.270020 158.440201,646.200989 
	C158.599365,580.205566 158.780380,514.208252 158.424988,448.214508 
	C158.268875,419.222168 157.296890,390.201569 158.944443,361.265533 
	C160.697067,330.484314 169.128113,301.212097 184.009155,274.140869 
	C216.332260,215.339462 265.392822,178.361557 330.784729,163.250076 
	C344.423981,160.098175 358.310486,158.569656 372.357788,158.576309 
	C466.185638,158.620712 560.015259,158.272385 653.840576,158.756851 
	C703.752747,159.014587 748.225586,175.879593 786.832581,207.366714 
	C831.982910,244.190460 857.975220,291.991852 866.055298,349.593994 
	C867.329224,358.675720 867.442688,367.844391 867.438293,377.014313 
	C867.402222,451.842896 867.412415,526.671448 867.409424,602.000122 
M431.500092,227.387543 
	C414.520508,227.489944 397.517700,226.813980 380.613007,229.178909 
	C327.362732,236.628479 285.889984,262.972137 256.095947,307.504333 
	C236.259277,337.153595 227.409515,370.274872 227.372437,405.795990 
	C227.298843,476.290436 227.372269,546.785034 227.315842,617.279541 
	C227.305954,629.630676 227.962509,641.933472 230.352814,654.037964 
	C240.934891,707.625793 269.832153,748.336731 317.060547,775.778687 
	C344.953430,791.985718 375.369537,798.719299 407.486115,798.681519 
	C476.980621,798.599854 546.475281,798.638916 615.969849,798.651428 
	C626.137878,798.653259 636.276245,798.227173 646.343445,796.753174 
	C699.933411,788.906799 741.394104,761.953186 770.959534,716.819397 
	C790.314148,687.273010 798.611816,654.365051 798.630615,619.239624 
	C798.667480,550.411682 798.627258,481.583649 798.690369,412.755737 
	C798.700317,401.913727 798.331787,391.116028 796.794495,380.374512 
	C788.582092,322.994812 759.059937,279.816193 709.354187,250.530258 
	C681.587036,234.170258 651.104614,227.357391 618.985657,227.375427 
	C556.823792,227.410339 494.661957,227.387161 431.500092,227.387543 
z"/>
<path fill="#000000" opacity="1.000000" stroke="none" 
	d="
M707.691772,541.504517 
	C702.455811,576.949646 688.417114,608.057312 665.545776,634.935913 
	C636.542114,669.021423 599.925110,690.695007 555.735046,698.311768 
	C498.444672,708.186523 446.839752,694.576782 402.108582,657.404846 
	C365.040741,626.601074 343.210571,586.620728 337.006104,538.937988 
	C324.640167,443.902618 383.353027,358.898773 471.568787,334.188599 
	C566.657532,307.553253 666.226624,358.827728 698.589966,450.622742 
	C708.964294,480.048340 712.296387,510.153229 707.691772,541.504517 
M578.901001,610.391724 
	C642.737488,571.611084 653.083801,486.098145 600.216064,434.222137 
	C565.124817,399.789185 510.091888,393.008575 467.210388,417.410736 
	C426.740753,440.440460 404.152832,486.369446 412.685425,533.587219 
	C426.565796,610.398376 509.741272,648.898682 578.901001,610.391724 
z"/>
<path fill="#000000" opacity="1.000000" stroke="none" 
	d="
M732.989868,294.046509 
	C750.012817,314.997986 747.142212,345.057953 726.772400,361.913330 
	C706.666260,378.550537 676.003296,375.860596 659.437195,356.006226 
	C642.695129,335.940948 644.767639,305.160858 663.956787,288.881836 
	C685.214172,270.848297 714.643127,272.942017 732.989868,294.046509 
z"/>
</svg>